<?xml version="1.0" standalone="yes"?>
<svg xmlns="http://www.w3.org/2000/svg" width="640" height="640">
<path style="fill:#ffffff; stroke:none;" d="M0 0L0 640L160 640L160 594L160 576L160 570L160 568L160.028 567L160.083 566L160.389 564L160.611 563L160.917 561L161 559L161.083 557L161.389 555L161.639 554L162.139 552L162.361 551L162.611 550L162.917 548L163.028 546L163.083 545L163.222 544L163.417 543L164 541L164.583 539L165 537L165.389 535L165.639 534L165.861 533L166.444 531L167.194 529L167.611 528L168.333 526L169 524L170 521L170.667 519L171.028 518L171.389 517L171.806 516L172.611 514L173.389 512L174.25 510L174.75 509L175.639 507L176.056 506L177.056 504L177.611 503L178.611 501L179.556 499L180.056 498L180.639 497L181.194 496L182.389 494L183.611 492L184.75 490L185.222 489L185.75 488.056L186.167 487.056L186.5 486.5L187 485L188.5 485.528L189.056 485.889L190.056 486.417L192 487.611L194 488.806L195 489.389L197 490.611L199 491.75L200 492.222L201 492.778L202 493.222L204 494.222L205 494.75L207 495.611L209 496.389L211 497.25L212 497.75L214 498.611L216 499.389L218 500.194L219 500.611L221 501.389L223 502.194L224 502.611L225 502.972L226 503.333L228 504.028L230 504.806L231 505.167L232 505.556L233 505.833L234 506.139L236 506.639L237 506.861L239 507.444L241 508.167L242 508.528L244 508.944L245 509.056L247 509.417L248 509.694L250 510.333L252 511L253 511.306L254 511.583L256 511.917L258 512.083L260 512.389L262 512.806L264 513.194L265 513.389L267 513.861L268 514.139L269 514.361L271 514.778L272 514.917L274 515.083L275 515.222L277 515.611L279 515.917L280 515.972L282 516.028L283 516.083L285 516.389L287 516.778L288 516.917L290 517.083L291 517.222L293 517.611L295 517.917L296 517.972L298 518L300 518.028L301 518.083L303 518.389L304 518.611L306 518.917L307 518.972L308 519L310 519L316 519L317 519L319 519.028L320 519.083L322 519.389L323 519.611L325 519.917L326 519.972L328 520L331 520L341 520L348 520L350 520L352 519.972L353 519.917L355 519.611L356 519.389L358 519.083L359 519.028L361 519L362 519L364 519L365 519L367 518.972L368 518.917L370 518.611L371 518.389L373 518.083L375 517.972L376 517.917L378 517.611L379 517.389L381 517.083L383 516.972L384 516.917L386 516.611L387 516.389L389 516.056L390 515.944L392 515.611L393 515.389L395 515.056L396 514.944L398 514.611L400 514.194L402 513.806L404 513.306L406 512.694L407 512.417L408 512.194L410 511.806L411 511.583L412 511.306L414 510.694L415 510.389L416 510.139L418 509.611L420 509L421 508.667L423 508L425 507.333L426 506.972L427 506.611L428 506.194L430 505.389L432 504.611L434 503.75L435 503.25L437 502.389L439 501.611L440 501.167L441 500.75L442 500.222L444 499.222L445 498.778L446 498.222L447 497.778L448 497.222L450 496.222L451 495.75L452 495.167L453 494.611L455 493.389L457 492.194L458 491.611L460 490.333L461 489.667L463 488.333L465 487L466 486.306L468 484.861L469 484.139L469.972 483.361L470.889 482.667L471.694 481.833L472.222 481.417L473 480L475 480L475.75 481.5L476.222 482.056L477.556 484L478.167 485L478.806 486L479.389 487L480.611 489L481.194 490L482.389 492L483.611 494L484.167 495L484.75 496L485.222 497L486.222 499L486.778 500L487.222 501L487.778 502L488.222 503L488.778 504L489.222 505L490.222 507L490.75 508L491.167 509L491.611 510L492.389 512L492.806 513L493.611 515L494.389 517L495.194 519L495.611 520L496.333 522L496.667 523L497.333 525L498 527L498.306 528L498.611 529L499.139 531L499.361 532L499.639 533L499.861 534L500.139 535L500.361 536L500.639 537L501.139 539L501.361 540L501.639 541L501.861 542L502.139 543L502.611 545L502.806 546L503.194 548L503.389 549L503.778 551L503.917 552L504.028 554L504.083 555L504.389 557L504.611 558L504.917 560L504.972 561L505.028 563L505.083 564L505.389 566L505.611 567L505.917 569L505.972 570L506 571L506 573L506 578L506 593L506 640L624 640L629 640L633 640L640 640L640 606L640 561L640 538L640 510L640 493L640 492L640 468L640 445L640 431L640 414L640 413L640 384L640 380L640 356L640 353L640 86L640 46L640 41L640 33L640 28L640 20L640 17L640 0L0 0z"/>
<path style="fill:#222524; stroke:none;" d="M449 158L450.5 159L451.056 159.222L453 160.25L455 161.361L456 161.944L457 162.472L459 163.528L460 164.056L461 164.639L462 165.194L463 165.806L464 166.389L466 167.611L468 168.806L469 169.389L471 170.667L473 172L475 173.333L476 174L477 174.694L478 175.389L479 176.139L480 176.861L482 178.389L484 180.056L485 180.944L487 182.5L489 183.5L491 183.889L493 183.778L495 183.306L497 182.611L498 182.167L499 181.722L500 181.167L501 180.611L503 179.389L505 178.167L506 177.528L508 175.917L509.972 174L511.75 172L512.528 171L513.75 169L514.222 168L514.778 167L515.222 166L515.75 165L516.528 163L516.778 162L517.194 160L517.389 159L517.611 158L517.917 156L517.972 155L518 154L518 152L518 150L518 149L518 148L517.917 146L517.528 144L517.167 143L516.806 142L516.361 141L515.389 139L514.111 137L513.361 136L512.611 135.028L510.917 133.222L509 131.639L507 130.139L506 129.361L505 128.639L503 127.167L502 126.444L500 125.25L498 124.25L497 123.833L496 123.389L495 123.028L493 122.389L492 122.139L490 121.611L489 121.306L487 120.694L486 120.417L484 120.083L483 120.028L481 120.083L479 120.389L477 120.806L475 121.194L474 121.389L472 121.861L471 122.167L470 122.444L468 123.25L467 123.778L466 124.222L465 124.778L463 125.778L462 126.25L461 126.861L460 127.472L458.028 129.083L456.25 131L455.472 132L454.25 134L453.778 135L453.25 136L452.389 138L452.028 139L451.333 141L451 142L450.417 144L450.194 145L449.806 147L449.611 148L449.389 149L449.083 151L449.028 152L449 154L449 154.944L449 158M145 195L146.056 193.5L146.389 192.944L147.056 191.944L148.417 190L150.083 188L152 186L153 185L155 183L157 181L158 180L160 178.028L161 177.083L163 175.417L164 174.694L165 174L167 172.583L168 171.778L169 170.944L171 169.222L172 168.417L174 167L176 165.667L178 164.389L179.972 163.167L181.667 161.75L182.278 160.917L182.861 159L182.889 158L182.611 156L182.361 155L181.861 153L181.611 152L180.917 150L180.444 149L179.278 147L178.583 146L177.778 145L175.972 143.083L174 141.389L173 140.611L172 139.778L170 138.056L169 137.25L168 136.472L166 135.194L165 134.639L164 134.056L162 133.056L161 132.639L159 131.833L158 131.444L157 131.167L156 130.861L154 130.389L152 130.056L151 129.944L149 129.611L148 129.389L146 129.111L145 129.111L143 129.389L142 129.611L140 130L138 130.417L136 131L134 131.667L133 132.028L131 132.833L130 133.278L129 133.833L128 134.389L127 135.028L125 136.333L124 137L122 138.417L121.028 139.222L120.083 140.083L118.417 142L117.694 143L116.417 145L115.417 147L115.028 148L114.389 150L114.139 151L113.639 153L113.389 154L113.083 156L113.028 157L113 159L113 161L113 163L113 164L113 165L113.083 167L113.222 168L113.389 169L113.806 171L114.222 173L114.472 174L115.25 176L115.778 177L116.222 178L116.778 179L117.25 180L118.472 181.972L120.083 183.778L121.028 184.611L123 186.194L125 187.778L126 188.528L128 189.75L129 190.222L130 190.778L131 191.222L132 191.778L133 192.222L134 192.75L136 193.528L137 193.778L139 194.194L141 194.611L142.944 194.917L145 195M189 286.389L187 286.806L185 287.222L184 287.472L182 288.25L181 288.778L179 289.833L178 290.389L176 291.694L175 292.417L173.083 294.083L172.222 295.028L171.417 296L170.694 297L169.389 299L168.25 301L167.778 302L167.222 303L166.778 304L166.222 305L165.778 306L165.222 307L164.778 308L164.25 309L163.389 311L163.028 312L162.667 313L161.972 315L161.611 316L161.194 317L160.472 319L160.25 320L160.083 321L160 323L160 324L160 326L160 330L160 332L160.083 334L160.389 336L160.611 337L160.944 339L161.056 340L161.472 342L161.833 343L162.611 345L163.389 347L163.833 348L164.25 349L164.778 350L165.222 351L166.25 352.972L167.472 354.778L168.25 355.583L170.028 356.972L172 358.167L173 358.722L175 359.556L176 359.833L177 360.139L179 360.611L181 360.917L183 361.083L185 361.389L186 361.611L188 361.917L190 361.917L192 361.611L193 361.389L195 361.083L197 361L199 360.917L201 360.611L202 360.361L203 360.139L205 359.556L207 358.75L208 358.222L210 357.222L211 356.75L212 356.167L213 355.611L215 354.306L216 353.583L218 352L220 350.389L221 349.611L223 347.917L224.972 346L225.917 345L227.583 343L228.306 342L229.611 340L230.167 339L231.222 337L231.75 336L232.139 335L232.528 334L232.75 333L232.917 332L233 330L233 328L233 326L233 325L232.972 323L232.917 322L232.611 320L232.361 319L231.861 317L231.611 316L231 314L230.333 312L229.972 311L229.167 309L228.722 308L228.167 307L227.611 306L226.306 304L225.611 303L224.861 302L223.361 300L222.611 299L220.917 297.083L219 295.389L218 294.639L216 293.139L215 292.389L214 291.694L212 290.389L211 289.833L210 289.278L209 288.833L208 288.389L206 287.694L205 287.417L204 287.194L202 286.806L200 286.389L199 286.222L198 286.083L196 286L195 286L193 286L191 286.083L189 286.389M460 286.389L459 286.611L457 286.917L455 287.083L453 287.417L452 287.694L450 288.306L449 288.611L447 289.167L446 289.444L445 289.861L444 290.278L442 291.472L441 292.25L439 294.028L437.083 296L436.25 297L435.472 298L434.25 300L433.778 301L433.25 302L432.389 304L431.667 306L431 308L430.417 310L430.083 312L429.917 314L429.778 315L429.389 317L429.222 318L429.083 319L429 321L429 322L429 323L429 325L429 327L429.083 329L429.222 330L429.417 331L430 333L430.333 334L430.667 335L431.417 337L432.417 339L433.694 341L434.417 342L436.083 344L437.028 345L438 346L440 348L442 349.972L443 350.917L445 352.583L447 354L448 354.667L450 355.972L451 356.611L452 357.167L453 357.722L454 358.167L455 358.611L457 359.306L458 359.611L459 359.861L461 360.361L462 360.611L464 360.944L465 361.056L467 361.389L468 361.611L470 361.917L471 361.972L473 362L475 361.917L477 361.611L478 361.389L479 361.222L480 361.083L482 360.917L483 360.778L484 360.583L486 360L487 359.667L488 359.333L490 358.583L491 358.083L492 357.5L493.917 355.917L494.75 354.972L495.528 354L496.722 352L497.611 350L498.306 348L498.583 347L498.944 345L499.056 344L499.389 342L499.611 341L499.917 339L499.972 338L500 336L500 334L500 331L500 329L500 328L499.917 326L499.778 325L499.361 323L498.861 321L498.611 320L498 318L497.333 316L496.333 313L495.667 311L495.333 310L494.611 308L494.194 307L493.389 305L492.611 303L491.75 301L491.222 300L490.75 299L489.528 297L487.917 295L486.972 294L485 292.028L484 291.083L482 289.472L481 288.861L480 288.278L479 287.861L478 287.472L477 287.222L476 287L474 286.611L473 286.389L471 286.083L469 286L468 286L466 286L464 286L462 286.083L460 286.389z"/>
<path style="fill:#ffffff; stroke:none;" d="M193 311.5L192 311.944L190.028 313.25L189.111 314.083L188.306 315.028L187.639 316L187.111 317L186.444 319L186.306 320L186.306 321L186.639 323L186.889 324L187.25 325L188.333 326.972L190.028 328.75L191 329.5L193 330.5L195 330.917L196 330.972L198 330.917L199 330.75L200 330.528L201.917 329.722L202.778 329.139L203.583 328.528L204.917 326.917L205.917 325L206.278 324L206.75 322L206.833 321L206.75 320L206.278 318L205.917 317L204.917 315.083L203.583 313.472L202.778 312.861L201.917 312.278L200 311.472L198 311.083L197 311.028L195 311.083L194 311.25L193 311.5M461 311.5L459 312.5L458.028 313.25L457.111 314.083L455.639 316L455.111 317L454.417 319L454.167 321L454.25 322L454.722 324L455.639 326L457.111 327.917L459 329.5L461 330.5L462 330.75L463 330.917L465 330.972L467 330.75L468 330.5L470 329.5L471.889 327.917L473.306 326L473.75 325L474.361 323L474.778 321L474.889 320L474.667 318L474.306 317L473.111 315.083L471.611 313.472L469.917 312.278L468 311.472L467 311.25L466 311.083L464 311.028L462 311.25L461 311.5z"/>
<path style="fill:#222524; stroke:none;" d="M329 359L329 364L329 366L329 367L329 369L328.972 370L328.917 371L328.583 373L328.306 374L327.972 375L327.083 376.917L326.5 377.75L325.75 378.528L323.972 379.694L322 380.278L321 380.278L320 380.083L318 379.389L316 378.583L315 378.111L313 376.972L312 376.333L310 375.111L308.056 374.361L306.5 374.306L305 375L305.361 376.5L306.333 377.972L308.028 379.583L309 380.306L311 381.611L312 382.167L313 382.722L315 383.611L317 384.306L318 384.583L319 384.778L321 384.972L323 384.972L324 384.917L326 384.5L327.972 383.5L329.75 381.917L330.5 380.972L331.056 380.056L331.722 378.5L332 377L333.5 377.694L334.056 378.056L336 379.083L337 379.5L339 379.917L340 379.972L342 379.917L344 379.611L345 379.361L347 378.833L348 378.556L350 377.722L351 377.167L353 375.972L354.972 374.583L356.667 372.972L357.639 371.5L358 370L357 369L355.5 369.278L353.944 369.917L352 371L351 371.611L349 372.75L348 373.222L346 374.167L345 374.611L343 375.278L342 375.5L340 375.417L339 375.028L338.028 374.5L336.306 372.917L335.111 371L334.722 370L334.417 369L334.083 367L334.028 366L334 365L334 363L334 359L335.5 359L337.056 358.917L338 358.75L339 358.528L340 358.139L342 357.139L343 356.528L344.889 354.917L345.694 353.972L346.889 352L347.278 351L347.583 350L347.917 348L347.972 347L348 346L347.889 344L347.667 343L346.667 341L344.972 339.028L343 337.25L342 336.5L340 335.417L338 334.694L337 334.417L336 334.222L335 334.083L333 334L332 334L330 334L329 334L327 334.083L326 334.25L325 334.472L323 335.25L322.028 335.778L321.083 336.25L319.417 337.389L318 338.694L316.694 340.222L316.111 341.083L315.306 343L315.111 344L315 346L315.028 348L315.083 349L315.5 351L316.5 353L318.083 354.917L320 356.528L321 357.139L322 357.722L323 358.139L324 358.528L325.944 358.917L326.944 358.972L329 359M473 480L471.5 481.417L470.944 481.833L469.944 482.667L469 483.361L468 484.139L466 485.611L465 486.306L464 487L463 487.667L461 489L459 490.333L458 490.972L457 491.611L456 492.194L454 493.389L452 494.611L451 495.167L450 495.75L449 496.222L447 497.222L446 497.778L445 498.222L444 498.778L443 499.222L442 499.778L440 500.75L439 501.167L438 501.611L436 502.389L434 503.25L433 503.75L431 504.611L429 505.389L427 506.194L426 506.611L424 507.333L422 508L420 508.667L419 509L417 509.611L415 510.139L414 510.389L413 510.694L411 511.306L410 511.583L409 511.806L407 512.194L406 512.417L405 512.694L403 513.306L402 513.583L401 513.806L399 514.194L397 514.611L395 514.944L394 515.056L392 515.389L391 515.611L389 515.944L388 516.056L386 516.389L385 516.611L383 516.917L382 516.972L380 517.083L378 517.389L377 517.611L375 517.917L374 517.972L372 518.083L371 518.222L369 518.611L367 518.917L366 518.972L364 519L363 519L361 519L360 519L358 519.028L357 519.083L355 519.389L354 519.611L352 519.917L351 519.972L350 520L348 520L341 520L332 520L329 520L327 519.972L326 519.917L324 519.611L323 519.389L321 519.083L320 519.028L318 519L317 519L311 519L309 519L308 518.972L307 518.917L305 518.611L304 518.389L302 518.083L301 518.028L299 518L297 517.972L296 517.917L294 517.611L292 517.222L291 517.083L289 516.917L288 516.778L286 516.389L284 516.083L283 516.028L281 515.972L280 515.917L278 515.611L276 515.222L275 515.083L273 514.917L272 514.778L270 514.361L269 514.139L268 513.861L266 513.389L265 513.194L263 512.806L261 512.389L259 512.083L257 511.917L255 511.583L254 511.306L253 511L251 510.333L249 509.694L248 509.417L246 509.056L245 508.944L243 508.528L241 507.833L240 507.444L238 506.861L237 506.639L236 506.361L235 506.139L233 505.556L231 504.806L230 504.389L228 503.667L227 503.333L225 502.611L224 502.194L222 501.389L220 500.611L219 500.194L217 499.389L215 498.611L213 497.75L212 497.25L210 496.389L208 495.611L206 494.75L204 493.778L203 493.222L202 492.778L201 492.222L200 491.75L198 490.611L196 489.389L195 488.806L193 487.611L192 487L190.056 485.917L188.5 485.278L187 485L186 486.5L185.778 487.056L185.194 488.056L184.75 489L183.611 491L182.389 493L181.194 495L180.639 496L180.056 497L179.056 499L178.111 501L177.611 502L177.056 503L176.056 505L175.639 506L174.75 508L174.25 509L173.389 511L172.611 513L171.806 515L171.389 516L170.667 518L170 520L169 523L168.667 524L167.972 526L167.611 527L167.194 528L166.444 530L165.861 532L165.639 533L165.389 534L165.194 535L164.806 537L164.583 538L164.306 539L163.694 541L163.417 542L163.083 544L163.028 545L162.917 547L162.778 548L162.361 550L162.139 551L161.861 552L161.639 553L161.389 554L161.083 556L161 558L160.917 560L160.611 562L160.389 563L160.083 565L160.028 566L160 567L160 569L160 574L160 590L160 640L216 640L216.25 638.5L216.417 637.944L216.694 636.944L217 636L217.611 634L217.861 633L218.389 631L219.028 629L219.806 627L220.611 625L221.389 623L221.806 622L222.556 620L222.861 619L223.611 617L224.083 616L224.639 615L225.194 614L226.389 612L227.611 610L228.75 608L229.25 607L230.444 605L231.167 604L232.556 602L233.167 601L233.806 600L234.389 599L235.694 597L236.417 596L238.056 594L238.944 593L239.778 592L240.611 591L241.389 590L243.083 588L245 586L246 585L247 584L249 582L251 580L252 579.028L253 578.083L255 576.389L256 575.611L258 574L260 572.389L262 570.806L264 569.222L265 568.472L266 567.833L267 567.194L269 565.972L271 564.667L272 564.028L273 563.389L275 562.25L276 561.778L277 561.222L278 560.778L279 560.222L280 559.778L281 559.222L282 558.778L284 557.778L285 557.25L286 556.833L287 556.389L289 555.667L291 555L293 554.389L295 553.833L296 553.556L298 552.75L299 552.25L301 551.444L303 550.861L304 550.639L305 550.389L307 550.056L308 549.944L310 549.611L311 549.361L312 549.139L314 548.639L315 548.389L317 548.083L319 548L321 547.917L323 547.611L324 547.389L326 547.083L327 547.028L329 547L330 547L332 547L334 547L335 547L337 547.028L338 547.083L340 547.389L341 547.611L343 547.917L344 547.972L345 548L347 548L349 548.083L350 548.222L352 548.611L353 548.778L355 549.056L357 549.472L358 549.833L360 550.528L361 550.778L362 551L364 551.389L365 551.639L366 551.861L368 552.444L370 553.194L371 553.611L373 554.333L374 554.667L376 555.389L377 555.806L379 556.611L381 557.389L382 557.833L383 558.25L385 559.222L386 559.778L387 560.222L389 561.25L390 561.833L391 562.389L393 563.611L395 564.806L396 565.389L397 566.028L398 566.667L400 568L401 568.694L402 569.389L403 570.139L405 571.639L406 572.389L408 574.056L409 574.944L411 576.611L412 577.389L414 579.083L415 580.028L416 581L418 583L420 585L421.917 587L423.611 589L424.389 590L425.222 591L426.056 592L426.944 593L428.583 595L430 597L430.694 598L431.389 599L432.833 601L433.556 602L434.806 604L435.389 605L436.611 607L437.167 608L437.75 609L438.778 611L439.222 612L439.778 613L440.222 614L441.222 616L441.778 617L442.75 619L443.167 620L444.056 622L444.972 624L445.417 625L446.139 627L446.444 628L447.167 630L447.556 631L448.139 633L448.361 634L448.861 636L449.139 636.944L449.389 637.944L450 640L506 640L506 592L506 577L506 572L506 570L505.972 569L505.917 568L505.611 566L505.389 565L505.083 563L505.028 562L504.972 560L504.917 559L504.611 557L504.389 556L504.083 554L504.028 553L503.917 551L503.611 549L503.389 548L503.194 547L502.806 545L502.611 544L502.139 542L501.861 541L501.639 540L501.139 538L500.861 537L500.639 536L500.139 534L499.861 533L499.639 532L499.361 531L499.139 530L498.611 528L498.306 527L498 526L497.333 524L496.667 522L496.333 521L495.972 520L495.611 519L495.194 518L494.389 516L493.611 514L493.194 513L492.389 511L491.611 509L491.167 508L490.75 507L490.222 506L489.222 504L488.778 503L488.222 502L487.778 501L487.222 500L486.778 499L486.222 498L485.778 497L484.75 495L484.167 494L483.611 493L482.389 491L481.806 490L480.611 488L479.389 486L478.167 484L477.583 483.056L476.417 481.5L475 480L473 480z"/>
<path style="fill:#ffffff; stroke:none;" d="M216 640L450 640L449.75 638.5L449.361 636.944L449.139 636L448.861 635L448.639 634L448.361 633L448.139 632L447.556 630L447.167 629L446.444 627L446.139 626L445.417 624L444.972 623L444.056 621L443.167 619L442.75 618L441.778 616L441.222 615L440.778 614L440.222 613L439.778 612L439.222 611L438.778 610L437.75 608L437.167 607L436.611 606L435.389 604L434.167 602L433.556 601L432.833 600L431.389 598L430.694 597L430 596L428.583 594L426.944 592L426.056 591L425.222 590L424.389 589L423.611 588L421.917 586L420 584L419 583L418 582L417 581L415 579.083L413 577.389L412 576.611L411 575.778L409 574.056L408 573.222L407 572.389L406 571.639L404 570.139L403 569.389L402 568.694L401 568L399 566.667L398 566.028L397 565.389L396 564.806L394 563.611L392 562.389L391 561.833L390 561.25L388 560.222L387 559.778L386 559.222L384 558.25L383 557.833L382 557.389L380 556.611L378 555.806L377 555.389L375 554.667L374 554.333L373 553.972L371 553.194L370 552.833L369 552.444L368 552.167L367 551.861L365 551.389L363 551L361 550.528L360 550.167L358 549.472L357 549.25L355 548.944L353 548.611L352 548.389L350 548.083L349 548.028L347 548L345 547.972L344 547.917L342 547.611L341 547.389L339 547.083L338 547.028L336 547L335 547L332 547L329 547L328 547L326 547.028L325 547.083L323 547.389L322 547.611L320 547.917L318 548L316 548.083L314 548.389L313 548.639L311 549.139L310 549.361L309 549.611L307 549.944L306 550.056L304 550.389L303 550.639L302 550.861L300 551.444L298 552.25L297 552.75L295 553.556L294 553.833L292 554.389L290 555L288 555.667L286 556.389L285 556.833L284 557.25L283 557.778L281 558.778L280 559.222L279 559.778L278 560.222L277 560.778L276 561.222L275 561.778L274 562.25L272 563.389L271 564.028L270 564.667L268 565.972L266 567.194L265 567.833L264 568.472L263 569.222L261 570.806L260 571.611L258 573.194L257 574L255 575.611L254 576.389L252 578.083L251 579.028L250 580L248 582L246 584L245 585L243.083 587L241.389 589L240.611 590L239.778 591L238.944 592L238.056 593L236.417 595L235.694 596L234.389 598L233.806 599L233.167 600L232.556 601L231.167 603L230.444 604L229.25 606L228.75 607L227.611 609L226.389 611L225.194 613L224.639 614L224.083 615L223.611 616L222.861 618L222.556 619L221.806 621L221.389 622L220.611 624L219.806 626L219.389 627L218.694 629L218.139 631L217.861 632L217.611 633L217.306 634L216.694 636L216.417 636.944L216.083 638.5L216 640z"/>
</svg>
